<svg xmlns="http://www.w3.org/2000/svg" xmlns:xlink="http://www.w3.org/1999/xlink" width="500" zoomAndPan="magnify" viewBox="0 0 375 374.999991" height="500" preserveAspectRatio="xMidYMid meet" version="1.0"><defs><clipPath id="2e71d1e4f9"><path d="M 12 12 L 368.660156 12 L 368.660156 368.660156 L 12 368.660156 Z M 12 12 " clip-rule="nonzero"/></clipPath><clipPath id="7e4eda0d95"><path d="M 6.726562 296 L 95 296 L 95 339 L 6.726562 339 Z M 6.726562 296 " clip-rule="nonzero"/></clipPath><clipPath id="7145e53180"><path d="M 6.726562 6.726562 L 339 6.726562 L 339 283 L 6.726562 283 Z M 6.726562 6.726562 " clip-rule="nonzero"/></clipPath><clipPath id="c5a242523a"><path d="M 107 64.136719 L 290.914062 64.136719 L 290.914062 238 L 107 238 Z M 107 64.136719 " clip-rule="nonzero"/></clipPath><clipPath id="b0aa129999"><path d="M 64.121094 79 L 262 79 L 262 276.945312 L 64.121094 276.945312 Z M 64.121094 79 " clip-rule="nonzero"/></clipPath></defs><path fill="#5e17eb" d="M 16.808594 329.722656 L 46.363281 359.277344 L 45.730469 358.660156 C 48.949219 361.878906 53.390625 363.863281 58.296875 363.863281 L 346.09375 363.863281 C 351.003906 363.863281 355.441406 361.878906 358.660156 358.660156 C 361.878906 355.441406 363.863281 351.003906 363.863281 346.09375 L 363.863281 58.296875 C 363.863281 53.390625 361.878906 48.949219 358.660156 45.730469 L 359.042969 45.980469 L 329.792969 16.808594 " fill-opacity="1" fill-rule="nonzero"/><g clip-path="url(#2e71d1e4f9)"><path fill="#ba8afc" d="M 346.09375 368.269531 L 58.296875 368.269531 C 52.832031 368.269531 47.671875 366.300781 43.617188 362.714844 C 43.511719 362.628906 43.410156 362.539062 43.308594 362.449219 L 43.144531 362.289062 C 42.96875 362.128906 42.792969 361.953125 42.617188 361.773438 C 42.527344 361.6875 42.441406 361.597656 42.367188 361.496094 L 13.691406 332.820312 C 11.972656 331.101562 11.972656 328.308594 13.691406 326.589844 C 15.414062 324.871094 18.203125 324.871094 19.925781 326.589844 L 49.316406 355.96875 C 51.789062 358.21875 54.949219 359.4375 58.296875 359.4375 L 346.09375 359.4375 C 349.664062 359.4375 353.015625 358.042969 355.542969 355.527344 C 358.070312 353.015625 359.453125 349.648438 359.453125 346.078125 L 359.453125 58.296875 C 359.453125 54.726562 358.054688 51.375 355.542969 48.847656 C 355.335938 48.640625 355.148438 48.40625 354.984375 48.171875 L 326.679688 19.925781 C 324.960938 18.203125 324.945312 15.414062 326.679688 13.691406 C 328.398438 11.972656 331.191406 11.957031 332.910156 13.691406 L 362.15625 42.867188 C 362.421875 43.132812 362.65625 43.441406 362.847656 43.75 C 366.359375 47.773438 368.285156 52.890625 368.285156 58.296875 L 368.285156 346.09375 C 368.285156 352.015625 365.976562 357.585938 361.789062 361.773438 C 357.601562 365.964844 352.03125 368.269531 346.109375 368.269531 Z M 346.09375 368.269531 " fill-opacity="1" fill-rule="nonzero"/></g><path fill="#ffffff" d="M 28.90625 11.136719 L 316.699219 11.136719 C 317.28125 11.136719 317.863281 11.164062 318.441406 11.222656 C 319.019531 11.277344 319.59375 11.363281 320.164062 11.476562 C 320.738281 11.589844 321.300781 11.730469 321.855469 11.902344 C 322.414062 12.070312 322.960938 12.265625 323.5 12.488281 C 324.035156 12.710938 324.5625 12.960938 325.074219 13.234375 C 325.589844 13.507812 326.085938 13.808594 326.570312 14.128906 C 327.054688 14.453125 327.523438 14.800781 327.972656 15.167969 C 328.421875 15.539062 328.851562 15.929688 329.265625 16.339844 C 329.675781 16.75 330.066406 17.183594 330.433594 17.632812 C 330.804688 18.082031 331.148438 18.546875 331.472656 19.03125 C 331.796875 19.515625 332.09375 20.015625 332.371094 20.527344 C 332.644531 21.042969 332.894531 21.566406 333.117188 22.105469 C 333.339844 22.640625 333.535156 23.191406 333.703125 23.746094 C 333.871094 24.304688 334.011719 24.867188 334.125 25.4375 C 334.238281 26.007812 334.324219 26.582031 334.382812 27.164062 C 334.441406 27.742188 334.46875 28.324219 334.46875 28.90625 L 334.46875 316.699219 C 334.46875 317.28125 334.441406 317.863281 334.382812 318.441406 C 334.324219 319.019531 334.238281 319.59375 334.125 320.164062 C 334.011719 320.738281 333.871094 321.300781 333.703125 321.855469 C 333.535156 322.414062 333.339844 322.960938 333.117188 323.5 C 332.894531 324.035156 332.644531 324.5625 332.371094 325.074219 C 332.09375 325.589844 331.796875 326.085938 331.472656 326.570312 C 331.148438 327.054688 330.804688 327.523438 330.433594 327.972656 C 330.066406 328.421875 329.675781 328.851562 329.265625 329.265625 C 328.851562 329.675781 328.421875 330.066406 327.972656 330.433594 C 327.523438 330.804688 327.054688 331.148438 326.570312 331.472656 C 326.085938 331.796875 325.589844 332.09375 325.074219 332.371094 C 324.5625 332.644531 324.035156 332.894531 323.5 333.117188 C 322.960938 333.339844 322.414062 333.535156 321.855469 333.703125 C 321.300781 333.871094 320.738281 334.011719 320.164062 334.125 C 319.59375 334.238281 319.019531 334.324219 318.441406 334.382812 C 317.863281 334.441406 317.28125 334.46875 316.699219 334.46875 L 28.90625 334.46875 C 28.324219 334.46875 27.742188 334.441406 27.164062 334.382812 C 26.582031 334.324219 26.007812 334.238281 25.4375 334.125 C 24.867188 334.011719 24.304688 333.871094 23.746094 333.703125 C 23.191406 333.535156 22.640625 333.339844 22.105469 333.117188 C 21.566406 332.894531 21.042969 332.644531 20.527344 332.371094 C 20.015625 332.09375 19.515625 331.796875 19.03125 331.472656 C 18.546875 331.148438 18.082031 330.804688 17.632812 330.433594 C 17.183594 330.066406 16.75 329.675781 16.339844 329.265625 C 15.929688 328.851562 15.539062 328.421875 15.167969 327.972656 C 14.800781 327.523438 14.453125 327.054688 14.128906 326.570312 C 13.808594 326.085938 13.507812 325.589844 13.234375 325.074219 C 12.960938 324.5625 12.710938 324.035156 12.488281 323.5 C 12.265625 322.960938 12.070312 322.414062 11.902344 321.855469 C 11.730469 321.300781 11.589844 320.738281 11.476562 320.164062 C 11.363281 319.59375 11.277344 319.019531 11.222656 318.441406 C 11.164062 317.863281 11.136719 317.28125 11.136719 316.699219 L 11.136719 28.90625 C 11.136719 28.324219 11.164062 27.742188 11.222656 27.164062 C 11.277344 26.582031 11.363281 26.007812 11.476562 25.4375 C 11.589844 24.867188 11.730469 24.304688 11.902344 23.746094 C 12.070312 23.191406 12.265625 22.640625 12.488281 22.105469 C 12.710938 21.566406 12.960938 21.042969 13.234375 20.527344 C 13.507812 20.015625 13.808594 19.515625 14.128906 19.03125 C 14.453125 18.546875 14.800781 18.082031 15.167969 17.632812 C 15.539062 17.183594 15.929688 16.75 16.339844 16.339844 C 16.75 15.929688 17.183594 15.539062 17.632812 15.167969 C 18.082031 14.800781 18.546875 14.453125 19.03125 14.128906 C 19.515625 13.808594 20.015625 13.507812 20.527344 13.234375 C 21.042969 12.960938 21.566406 12.710938 22.105469 12.488281 C 22.640625 12.265625 23.191406 12.070312 23.746094 11.902344 C 24.304688 11.730469 24.867188 11.589844 25.4375 11.476562 C 26.007812 11.363281 26.582031 11.277344 27.164062 11.222656 C 27.742188 11.164062 28.324219 11.136719 28.90625 11.136719 Z M 28.90625 11.136719 " fill-opacity="1" fill-rule="nonzero"/><g clip-path="url(#7e4eda0d95)"><path fill="#ba8afc" d="M 90.132812 338.878906 L 28.90625 338.878906 C 16.675781 338.878906 6.726562 328.925781 6.726562 316.699219 L 6.726562 300.839844 C 6.726562 298.402344 8.695312 296.433594 11.136719 296.433594 C 13.574219 296.433594 15.542969 298.402344 15.542969 300.839844 L 15.542969 316.699219 C 15.542969 324.0625 21.542969 330.058594 28.90625 330.058594 L 90.132812 330.058594 C 92.570312 330.058594 94.539062 332.027344 94.539062 334.46875 C 94.539062 336.90625 92.570312 338.878906 90.132812 338.878906 Z M 90.132812 338.878906 " fill-opacity="1" fill-rule="nonzero"/></g><path fill="#ba8afc" d="M 316.699219 338.878906 L 116.984375 338.878906 C 114.542969 338.878906 112.574219 336.90625 112.574219 334.46875 C 112.574219 332.027344 114.542969 330.058594 116.984375 330.058594 L 316.699219 330.058594 C 324.0625 330.058594 330.058594 324.0625 330.058594 316.699219 L 330.058594 132.195312 C 330.058594 129.753906 332.027344 127.785156 334.46875 127.785156 C 336.90625 127.785156 338.878906 129.753906 338.878906 132.195312 L 338.878906 316.699219 C 338.878906 328.925781 328.925781 338.878906 316.699219 338.878906 Z M 316.699219 338.878906 " fill-opacity="1" fill-rule="nonzero"/><g clip-path="url(#7145e53180)"><path fill="#ba8afc" d="M 11.136719 282.527344 C 8.695312 282.527344 6.726562 280.558594 6.726562 278.121094 L 6.726562 28.90625 C 6.726562 16.675781 16.675781 6.726562 28.90625 6.726562 L 316.699219 6.726562 C 328.925781 6.726562 338.878906 16.675781 338.878906 28.90625 L 338.878906 96.949219 C 338.878906 99.390625 336.90625 101.359375 334.46875 101.359375 C 332.027344 101.359375 330.058594 99.390625 330.058594 96.949219 L 330.058594 28.90625 C 330.058594 21.542969 324.0625 15.542969 316.699219 15.542969 L 28.90625 15.542969 C 21.542969 15.542969 15.542969 21.542969 15.542969 28.90625 L 15.542969 278.121094 C 15.542969 280.558594 13.574219 282.527344 11.136719 282.527344 Z M 11.136719 282.527344 " fill-opacity="1" fill-rule="nonzero"/></g><g clip-path="url(#c5a242523a)"><path fill="#5e17eb" d="M 107.722656 164.214844 C 107.964844 161.40625 109.136719 158.921875 110.863281 156.65625 C 116.933594 148.675781 130.546875 145.019531 140.066406 150.90625 C 145.675781 154.375 150.175781 158.835938 153.917969 164.117188 C 157.027344 168.503906 159.835938 173.105469 162.859375 177.738281 C 164.972656 174.742188 167.101562 171.664062 169.285156 168.621094 C 188.042969 142.503906 208.636719 117.984375 232.527344 96.367188 C 247.183594 83.113281 263.996094 73.261719 282.089844 65.472656 C 285.21875 64.125 287.824219 64.652344 290.507812 67.363281 C 289.28125 68.507812 288.058594 69.640625 286.84375 70.785156 C 271.042969 85.707031 255.585938 100.96875 241.550781 117.570312 C 233.519531 127.066406 226.074219 137.054688 218.414062 146.859375 C 202.984375 166.605469 191.441406 188.820312 178.328125 210.039062 C 173.269531 218.230469 168.253906 226.453125 163.183594 234.640625 C 161.171875 237.894531 158.519531 237.851562 156.496094 234.527344 C 149.941406 223.730469 144.769531 212.261719 139.882812 200.640625 C 135.804688 190.941406 131.21875 181.476562 125.402344 172.660156 C 122.519531 168.300781 119.128906 164.714844 113.550781 164.238281 C 111.667969 164.082031 109.753906 164.214844 107.722656 164.214844 Z M 107.722656 164.214844 " fill-opacity="1" fill-rule="nonzero"/></g><g clip-path="url(#b0aa129999)"><path fill="#5e17eb" d="M 249.597656 130.433594 L 234.230469 145.800781 C 238.671875 155.601562 241.132812 166.480469 241.132812 177.941406 C 241.132812 221.09375 206.15625 256.070312 163.003906 256.070312 C 119.851562 256.070312 84.875 221.09375 84.875 177.941406 C 84.875 134.785156 119.851562 99.8125 163.003906 99.8125 C 173.792969 99.8125 184.0625 102 193.40625 105.949219 L 208.886719 90.46875 C 195.179688 83.261719 179.5625 79.183594 163.003906 79.183594 C 108.464844 79.183594 64.25 123.398438 64.25 177.941406 C 64.25 232.480469 108.464844 276.691406 163.003906 276.691406 C 217.546875 276.691406 261.757812 232.476562 261.757812 177.933594 C 261.757812 160.71875 257.351562 144.523438 249.597656 130.433594 Z M 249.597656 130.433594 " fill-opacity="1" fill-rule="nonzero"/></g></svg>