<svg xmlns="http://www.w3.org/2000/svg" xmlns:xlink="http://www.w3.org/1999/xlink" width="500" zoomAndPan="magnify" viewBox="0 0 375 374.999991" height="500" preserveAspectRatio="xMidYMid meet" version="1.0"><defs><clipPath id="39ea97aa36"><path d="M 14 14 L 366.789062 14 L 366.789062 366.789062 L 14 366.789062 Z M 14 14 " clip-rule="nonzero"/></clipPath><clipPath id="0938427d4a"><path d="M 8.484375 295 L 96 295 L 96 338 L 8.484375 338 Z M 8.484375 295 " clip-rule="nonzero"/></clipPath><clipPath id="5778c5e47d"><path d="M 8.484375 8.484375 L 338 8.484375 L 338 282 L 8.484375 282 Z M 8.484375 8.484375 " clip-rule="nonzero"/></clipPath><clipPath id="573acdcd59"><path d="M 82.859375 81.304688 L 254.890625 81.304688 L 254.890625 288.039062 L 82.859375 288.039062 Z M 82.859375 81.304688 " clip-rule="nonzero"/></clipPath><clipPath id="978c35b996"><path d="M 110 53.554688 L 226 53.554688 L 226 104 L 110 104 Z M 110 53.554688 " clip-rule="nonzero"/></clipPath></defs><path fill="#5e17eb" d="M 18.46875 328.339844 L 47.734375 357.605469 L 47.109375 356.996094 C 50.296875 360.183594 54.691406 362.148438 59.554688 362.148438 L 344.550781 362.148438 C 349.414062 362.148438 353.808594 360.183594 356.996094 356.996094 C 360.183594 353.808594 362.148438 349.414062 362.148438 344.550781 L 362.148438 59.554688 C 362.148438 54.691406 360.183594 50.296875 356.996094 47.109375 L 357.375 47.355469 L 328.410156 18.46875 " fill-opacity="1" fill-rule="nonzero"/><g clip-path="url(#39ea97aa36)"><path fill="#5e17eb" d="M 344.550781 366.511719 L 59.554688 366.511719 C 54.140625 366.511719 49.03125 364.5625 45.015625 361.011719 C 44.910156 360.925781 44.808594 360.835938 44.707031 360.75 L 44.546875 360.589844 C 44.375 360.429688 44.199219 360.253906 44.023438 360.082031 C 43.9375 359.992188 43.851562 359.90625 43.777344 359.804688 L 15.382812 331.410156 C 13.679688 329.707031 13.679688 326.941406 15.382812 325.238281 C 17.085938 323.535156 19.851562 323.535156 21.554688 325.238281 L 50.660156 354.332031 C 53.105469 356.558594 56.234375 357.765625 59.554688 357.765625 L 344.550781 357.765625 C 348.089844 357.765625 351.40625 356.382812 353.910156 353.894531 C 356.414062 351.40625 357.78125 348.074219 357.78125 344.535156 L 357.78125 59.554688 C 357.78125 56.015625 356.398438 52.699219 353.910156 50.195312 C 353.707031 49.992188 353.515625 49.757812 353.355469 49.527344 L 325.324219 21.554688 C 323.621094 19.851562 323.609375 17.085938 325.324219 15.382812 C 327.027344 13.679688 329.792969 13.664062 331.496094 15.382812 L 360.457031 44.273438 C 360.722656 44.535156 360.953125 44.839844 361.144531 45.144531 C 364.621094 49.132812 366.527344 54.199219 366.527344 59.554688 L 366.527344 344.550781 C 366.527344 350.417969 364.242188 355.933594 360.09375 360.082031 C 355.945312 364.230469 350.429688 366.511719 344.566406 366.511719 Z M 344.550781 366.511719 " fill-opacity="1" fill-rule="nonzero"/></g><path fill="#ffffff" d="M 30.445312 12.847656 L 315.441406 12.847656 C 316.019531 12.847656 316.59375 12.878906 317.167969 12.933594 C 317.742188 12.992188 318.3125 13.074219 318.875 13.1875 C 319.441406 13.300781 320 13.441406 320.550781 13.605469 C 321.101562 13.773438 321.644531 13.96875 322.175781 14.1875 C 322.710938 14.410156 323.230469 14.65625 323.738281 14.925781 C 324.246094 15.199219 324.738281 15.496094 325.21875 15.816406 C 325.699219 16.136719 326.160156 16.476562 326.605469 16.84375 C 327.050781 17.210938 327.476562 17.597656 327.886719 18.003906 C 328.292969 18.410156 328.679688 18.835938 329.046875 19.28125 C 329.410156 19.726562 329.753906 20.191406 330.074219 20.667969 C 330.394531 21.148438 330.691406 21.644531 330.960938 22.152344 C 331.234375 22.660156 331.480469 23.179688 331.699219 23.710938 C 331.921875 24.246094 332.113281 24.785156 332.28125 25.335938 C 332.449219 25.890625 332.589844 26.449219 332.699219 27.011719 C 332.8125 27.578125 332.898438 28.148438 332.953125 28.722656 C 333.011719 29.292969 333.039062 29.871094 333.039062 30.445312 L 333.039062 315.441406 C 333.039062 316.019531 333.011719 316.59375 332.953125 317.167969 C 332.898438 317.742188 332.8125 318.3125 332.699219 318.875 C 332.589844 319.441406 332.449219 320 332.28125 320.550781 C 332.113281 321.101562 331.921875 321.644531 331.699219 322.175781 C 331.480469 322.710938 331.234375 323.230469 330.960938 323.738281 C 330.691406 324.246094 330.394531 324.738281 330.074219 325.21875 C 329.753906 325.699219 329.410156 326.160156 329.046875 326.605469 C 328.679688 327.050781 328.292969 327.476562 327.886719 327.886719 C 327.476562 328.292969 327.050781 328.679688 326.605469 329.046875 C 326.160156 329.410156 325.699219 329.753906 325.21875 330.074219 C 324.738281 330.394531 324.246094 330.691406 323.738281 330.960938 C 323.230469 331.234375 322.710938 331.480469 322.175781 331.699219 C 321.644531 331.921875 321.101562 332.113281 320.550781 332.28125 C 320 332.449219 319.441406 332.589844 318.875 332.699219 C 318.3125 332.8125 317.742188 332.898438 317.167969 332.953125 C 316.59375 333.011719 316.019531 333.039062 315.441406 333.039062 L 30.445312 333.039062 C 29.867188 333.039062 29.292969 333.011719 28.71875 332.953125 C 28.148438 332.898438 27.578125 332.8125 27.011719 332.699219 C 26.449219 332.589844 25.890625 332.449219 25.335938 332.28125 C 24.785156 332.113281 24.242188 331.921875 23.710938 331.699219 C 23.179688 331.480469 22.660156 331.234375 22.152344 330.960938 C 21.640625 330.691406 21.148438 330.394531 20.667969 330.074219 C 20.191406 329.753906 19.726562 329.410156 19.28125 329.046875 C 18.835938 328.679688 18.410156 328.292969 18.003906 327.886719 C 17.59375 327.476562 17.210938 327.050781 16.84375 326.605469 C 16.476562 326.160156 16.136719 325.699219 15.816406 325.21875 C 15.496094 324.738281 15.199219 324.246094 14.925781 323.738281 C 14.65625 323.230469 14.410156 322.710938 14.1875 322.175781 C 13.96875 321.644531 13.773438 321.101562 13.605469 320.550781 C 13.441406 320 13.300781 319.441406 13.1875 318.875 C 13.074219 318.3125 12.992188 317.742188 12.933594 317.167969 C 12.878906 316.59375 12.847656 316.019531 12.847656 315.441406 L 12.847656 30.445312 C 12.847656 29.871094 12.878906 29.292969 12.933594 28.722656 C 12.992188 28.148438 13.074219 27.578125 13.1875 27.011719 C 13.300781 26.449219 13.441406 25.890625 13.605469 25.335938 C 13.773438 24.785156 13.96875 24.246094 14.1875 23.710938 C 14.410156 23.179688 14.65625 22.660156 14.925781 22.152344 C 15.199219 21.644531 15.496094 21.148438 15.816406 20.667969 C 16.136719 20.191406 16.476562 19.726562 16.84375 19.28125 C 17.210938 18.835938 17.59375 18.410156 18.003906 18.003906 C 18.410156 17.597656 18.835938 17.210938 19.28125 16.84375 C 19.726562 16.476562 20.191406 16.136719 20.667969 15.816406 C 21.148438 15.496094 21.640625 15.199219 22.152344 14.925781 C 22.660156 14.65625 23.179688 14.410156 23.710938 14.1875 C 24.242188 13.96875 24.785156 13.773438 25.335938 13.605469 C 25.890625 13.441406 26.449219 13.300781 27.011719 13.1875 C 27.578125 13.074219 28.148438 12.992188 28.71875 12.933594 C 29.292969 12.878906 29.867188 12.847656 30.445312 12.847656 Z M 30.445312 12.847656 " fill-opacity="1" fill-rule="nonzero"/><g clip-path="url(#0938427d4a)"><path fill="#5e17eb" d="M 91.078125 337.40625 L 30.445312 337.40625 C 18.335938 337.40625 8.484375 327.550781 8.484375 315.441406 L 8.484375 299.738281 C 8.484375 297.324219 10.433594 295.375 12.847656 295.375 C 15.265625 295.375 17.214844 297.324219 17.214844 299.738281 L 17.214844 315.441406 C 17.214844 322.734375 23.152344 328.671875 30.445312 328.671875 L 91.078125 328.671875 C 93.492188 328.671875 95.445312 330.625 95.445312 333.039062 C 95.445312 335.457031 93.492188 337.40625 91.078125 337.40625 Z M 91.078125 337.40625 " fill-opacity="1" fill-rule="nonzero"/></g><path fill="#5e17eb" d="M 315.441406 337.40625 L 117.667969 337.40625 C 115.25 337.40625 113.300781 335.457031 113.300781 333.039062 C 113.300781 330.625 115.25 328.671875 117.667969 328.671875 L 315.441406 328.671875 C 322.734375 328.671875 328.671875 322.734375 328.671875 315.441406 L 328.671875 132.730469 C 328.671875 130.316406 330.625 128.367188 333.039062 128.367188 C 335.453125 128.367188 337.40625 130.316406 337.40625 132.730469 L 337.40625 315.441406 C 337.40625 327.550781 327.550781 337.40625 315.441406 337.40625 Z M 315.441406 337.40625 " fill-opacity="1" fill-rule="nonzero"/><g clip-path="url(#5778c5e47d)"><path fill="#5e17eb" d="M 12.847656 281.605469 C 10.433594 281.605469 8.484375 279.65625 8.484375 277.238281 L 8.484375 30.445312 C 8.484375 18.335938 18.335938 8.484375 30.445312 8.484375 L 315.441406 8.484375 C 327.550781 8.484375 337.40625 18.335938 337.40625 30.445312 L 337.40625 97.832031 C 337.40625 100.246094 335.453125 102.195312 333.039062 102.195312 C 330.625 102.195312 328.671875 100.246094 328.671875 97.832031 L 328.671875 30.445312 C 328.671875 23.152344 322.734375 17.214844 315.441406 17.214844 L 30.445312 17.214844 C 23.152344 17.214844 17.214844 23.152344 17.214844 30.445312 L 17.214844 277.238281 C 17.214844 279.65625 15.265625 281.605469 12.847656 281.605469 Z M 12.847656 281.605469 " fill-opacity="1" fill-rule="nonzero"/></g><g clip-path="url(#573acdcd59)"><path fill="#5e17eb" d="M 93.75 86.347656 C 90.515625 86.347656 87.886719 88.980469 87.886719 92.210938 L 87.886719 277.652344 C 87.886719 280.886719 90.515625 283.515625 93.75 283.515625 L 244.5 283.515625 C 247.734375 283.515625 250.363281 280.886719 250.363281 277.652344 L 250.363281 92.210938 C 250.363281 88.980469 247.734375 86.347656 244.5 86.347656 L 225.136719 86.347656 L 225.136719 94.605469 C 225.136719 99.566406 221.101562 103.601562 216.144531 103.601562 L 119.964844 103.601562 C 115.003906 103.601562 110.96875 99.566406 110.96875 94.605469 L 110.96875 86.347656 Z M 244.5 288.539062 L 93.75 288.539062 C 87.746094 288.539062 82.859375 283.65625 82.859375 277.652344 L 82.859375 92.210938 C 82.859375 86.207031 87.746094 81.324219 93.75 81.324219 L 115.992188 81.324219 L 115.992188 94.605469 C 115.992188 96.796875 117.773438 98.574219 119.964844 98.574219 L 216.144531 98.574219 C 218.332031 98.574219 220.113281 96.796875 220.113281 94.605469 L 220.113281 81.324219 L 244.5 81.324219 C 250.503906 81.324219 255.390625 86.207031 255.390625 92.210938 L 255.390625 277.652344 C 255.390625 283.65625 250.503906 288.539062 244.5 288.539062 " fill-opacity="1" fill-rule="nonzero"/></g><g clip-path="url(#978c35b996)"><path fill="#5e17eb" d="M 119.964844 73.453125 C 117.773438 73.453125 115.992188 75.230469 115.992188 77.421875 L 115.992188 94.605469 C 115.992188 96.796875 117.773438 98.574219 119.964844 98.574219 L 216.144531 98.574219 C 218.332031 98.574219 220.113281 96.796875 220.113281 94.605469 L 220.113281 77.421875 C 220.113281 75.230469 218.332031 73.453125 216.144531 73.453125 L 194.472656 73.453125 C 190.457031 73.453125 186.796875 71.101562 184.914062 67.316406 C 182.289062 62.027344 176.148438 58.609375 169.277344 58.609375 C 162.402344 58.609375 156.261719 62.027344 153.636719 67.316406 C 151.757812 71.101562 148.09375 73.453125 144.078125 73.453125 Z M 216.144531 103.601562 L 119.964844 103.601562 C 115.003906 103.601562 110.96875 99.566406 110.96875 94.605469 L 110.96875 77.421875 C 110.96875 72.460938 115.003906 68.425781 119.964844 68.425781 L 144.078125 68.425781 C 146.171875 68.425781 148.109375 67.144531 149.136719 65.082031 C 152.605469 58.097656 160.511719 53.585938 169.277344 53.585938 C 178.042969 53.585938 185.945312 58.097656 189.417969 65.082031 C 190.441406 67.144531 192.378906 68.425781 194.472656 68.425781 L 216.144531 68.425781 C 221.105469 68.425781 225.136719 72.460938 225.136719 77.421875 L 225.136719 94.605469 C 225.136719 99.566406 221.105469 103.601562 216.144531 103.601562 " fill-opacity="1" fill-rule="nonzero"/></g><path fill="#5e17eb" d="M 173.347656 81.191406 C 173.347656 83.519531 171.457031 85.410156 169.125 85.410156 C 166.792969 85.410156 164.902344 83.519531 164.902344 81.191406 C 164.902344 78.859375 166.792969 76.96875 169.125 76.96875 C 171.457031 76.96875 173.347656 78.859375 173.347656 81.191406 " fill-opacity="1" fill-rule="nonzero"/><path fill="#5e17eb" d="M 222.390625 144.714844 L 178.367188 144.714844 C 176.054688 144.714844 174.179688 142.84375 174.179688 140.53125 C 174.179688 138.21875 176.054688 136.34375 178.367188 136.34375 L 222.390625 136.34375 C 224.703125 136.34375 226.574219 138.21875 226.574219 140.53125 C 226.574219 142.84375 224.703125 144.714844 222.390625 144.714844 " fill-opacity="1" fill-rule="nonzero"/><path fill="#5e17eb" d="M 222.390625 190 L 178.367188 190 C 176.054688 190 174.179688 188.125 174.179688 185.8125 C 174.179688 183.496094 176.054688 181.625 178.367188 181.625 L 222.390625 181.625 C 224.703125 181.625 226.578125 183.496094 226.578125 185.8125 C 226.578125 188.125 224.703125 190 222.390625 190 " fill-opacity="1" fill-rule="nonzero"/><path fill="#5e17eb" d="M 124.210938 145.578125 C 125.046875 146.832031 125.949219 148.019531 126.894531 149.164062 C 127.835938 150.316406 128.898438 151.34375 130.015625 152.316406 L 130.503906 152.746094 L 130.710938 152.914062 C 132.335938 154.125 134.636719 153.792969 135.851562 152.167969 C 137.503906 149.957031 138.980469 147.589844 140.6875 145.425781 C 142.347656 143.226562 144.046875 141.054688 145.660156 138.8125 C 147.304688 136.59375 148.910156 134.339844 150.5 132.074219 C 152.097656 129.816406 153.703125 127.5625 155.242188 125.25 C 155.335938 125.105469 155.332031 124.914062 155.21875 124.773438 C 155.078125 124.605469 154.828125 124.582031 154.65625 124.722656 C 152.515625 126.492188 150.4375 128.316406 148.355469 130.140625 C 146.265625 131.953125 144.1875 133.78125 142.152344 135.644531 C 140.082031 137.480469 138.097656 139.390625 136.078125 141.269531 C 135.113281 142.207031 134.09375 143.09375 133.070312 143.972656 C 132.894531 143.820312 132.734375 143.652344 132.554688 143.507812 C 131.410156 142.5625 130.222656 141.660156 128.96875 140.824219 C 127.714844 139.984375 126.417969 139.191406 125.027344 138.492188 C 123.65625 137.773438 122.203125 137.136719 120.597656 136.652344 C 120.515625 136.628906 120.425781 136.625 120.339844 136.652344 C 120.101562 136.722656 119.96875 136.972656 120.042969 137.210938 C 120.527344 138.8125 121.164062 140.265625 121.882812 141.636719 C 122.582031 143.03125 123.375 144.324219 124.210938 145.578125 " fill-opacity="1" fill-rule="nonzero"/><path fill="#5e17eb" d="M 154.65625 170.003906 C 152.515625 171.773438 150.4375 173.597656 148.355469 175.421875 C 146.265625 177.234375 144.1875 179.0625 142.152344 180.925781 C 140.082031 182.761719 138.097656 184.671875 136.078125 186.554688 C 135.113281 187.488281 134.09375 188.375 133.070312 189.253906 C 132.894531 189.101562 132.734375 188.933594 132.554688 188.789062 C 131.410156 187.84375 130.222656 186.941406 128.96875 186.105469 C 127.714844 185.269531 126.417969 184.472656 125.027344 183.773438 C 123.65625 183.054688 122.203125 182.417969 120.597656 181.933594 C 120.515625 181.910156 120.425781 181.90625 120.339844 181.933594 C 120.101562 182.003906 119.96875 182.253906 120.042969 182.492188 C 120.527344 184.09375 121.164062 185.550781 121.882812 186.917969 C 122.582031 188.3125 123.375 189.605469 124.210938 190.859375 C 125.046875 192.113281 125.949219 193.300781 126.894531 194.449219 C 127.835938 195.597656 128.898438 196.625 130.015625 197.597656 L 130.503906 198.023438 L 130.710938 198.195312 C 132.335938 199.40625 134.636719 199.074219 135.851562 197.449219 C 137.503906 195.238281 138.984375 192.871094 140.6875 190.710938 C 142.347656 188.507812 144.046875 186.339844 145.660156 184.09375 C 147.304688 181.875 148.910156 179.621094 150.5 177.355469 C 152.097656 175.097656 153.703125 172.84375 155.242188 170.53125 C 155.335938 170.386719 155.332031 170.195312 155.21875 170.054688 C 155.078125 169.886719 154.828125 169.863281 154.65625 170.003906 " fill-opacity="1" fill-rule="nonzero"/><path fill="#5e17eb" d="M 154.65625 215.285156 C 152.515625 217.054688 150.4375 218.882812 148.355469 220.703125 C 146.265625 222.515625 144.1875 224.347656 142.152344 226.210938 C 140.082031 228.046875 138.097656 229.957031 136.078125 231.835938 C 135.113281 232.769531 134.09375 233.65625 133.070312 234.539062 C 132.894531 234.386719 132.734375 234.21875 132.554688 234.070312 C 131.410156 233.125 130.222656 232.222656 128.96875 231.386719 C 127.714844 230.550781 126.417969 229.753906 125.027344 229.058594 C 123.65625 228.335938 122.203125 227.703125 120.597656 227.214844 C 120.515625 227.191406 120.425781 227.1875 120.339844 227.214844 C 120.101562 227.289062 119.96875 227.539062 120.042969 227.773438 C 120.527344 229.378906 121.164062 230.832031 121.882812 232.203125 C 122.582031 233.59375 123.375 234.890625 124.210938 236.140625 C 125.046875 237.398438 125.949219 238.585938 126.894531 239.730469 C 127.835938 240.878906 128.898438 241.910156 130.015625 242.882812 L 130.503906 243.308594 L 130.710938 243.476562 C 132.335938 244.691406 134.636719 244.355469 135.851562 242.730469 C 137.503906 240.519531 138.980469 238.15625 140.6875 235.992188 C 142.347656 233.789062 144.046875 231.621094 145.660156 229.375 C 147.304688 227.15625 148.910156 224.90625 150.5 222.636719 C 152.097656 220.378906 153.703125 218.125 155.242188 215.8125 C 155.335938 215.671875 155.332031 215.476562 155.21875 215.339844 C 155.078125 215.167969 154.828125 215.144531 154.65625 215.285156 " fill-opacity="1" fill-rule="nonzero"/><path fill="#5e17eb" d="M 222.390625 235.28125 L 178.367188 235.28125 C 176.054688 235.28125 174.179688 233.40625 174.179688 231.09375 C 174.179688 228.78125 176.054688 226.90625 178.367188 226.90625 L 222.390625 226.90625 C 224.703125 226.90625 226.578125 228.78125 226.578125 231.09375 C 226.578125 233.40625 224.703125 235.28125 222.390625 235.28125 " fill-opacity="1" fill-rule="nonzero"/></svg>