<svg xmlns="http://www.w3.org/2000/svg" xmlns:xlink="http://www.w3.org/1999/xlink" width="500" zoomAndPan="magnify" viewBox="0 0 375 374.999991" height="500" preserveAspectRatio="xMidYMid meet" version="1.0"><defs><clipPath id="8e902920cd"><path d="M 15.199219 10.035156 L 359.722656 10.035156 L 359.722656 365 L 15.199219 365 Z M 15.199219 10.035156 " clip-rule="nonzero"/></clipPath><clipPath id="7040c06ab1"><path d="M 96.378906 92.683594 L 278.464844 92.683594 L 278.464844 311.582031 L 96.378906 311.582031 Z M 96.378906 92.683594 " clip-rule="nonzero"/></clipPath><clipPath id="1c51731538"><path d="M 126 63.386719 L 247 63.386719 L 247 117 L 126 117 Z M 126 63.386719 " clip-rule="nonzero"/></clipPath></defs><path fill="#5e17eb" d="M 358.621094 132.042969 L 358.621094 347.46875 C 358.621094 356.476562 351.289062 363.914062 342.179688 363.914062 L 298.71875 363.914062 C 289.710938 363.914062 282.273438 356.582031 282.273438 347.46875 C 282.273438 338.464844 274.945312 331.027344 265.832031 331.027344 L 109.054688 331.027344 C 100.046875 331.027344 92.613281 338.359375 92.613281 347.46875 C 92.613281 356.476562 85.28125 363.914062 76.171875 363.914062 L 32.8125 363.914062 C 23.804688 363.914062 16.371094 356.582031 16.371094 347.46875 L 16.371094 131.941406 C 16.371094 131.625 16.578125 101.359375 38.257812 71.40625 C 51.035156 53.917969 68.523438 39.988281 90.308594 29.933594 C 117.433594 17.367188 151.46875 11.085938 191.265625 11.085938 C 229.28125 11.085938 261.851562 17.367188 287.929688 29.933594 C 308.769531 39.882812 325.527344 53.917969 337.675781 71.511719 C 358.410156 101.464844 358.621094 131.730469 358.621094 132.042969 Z M 358.621094 132.042969 L 358.621094 347.46875 C 358.621094 356.476562 351.289062 363.914062 342.179688 363.914062 L 298.71875 363.914062 C 289.710938 363.914062 282.273438 356.582031 282.273438 347.46875 C 282.273438 338.464844 274.945312 331.027344 265.832031 331.027344 L 109.054688 331.027344 C 100.046875 331.027344 92.613281 338.359375 92.613281 347.46875 C 92.613281 356.476562 85.28125 363.914062 76.171875 363.914062 L 32.8125 363.914062 C 23.804688 363.914062 16.371094 356.582031 16.371094 347.46875 L 16.371094 131.941406 C 16.371094 131.625 16.578125 101.359375 38.257812 71.40625 C 51.035156 53.917969 68.523438 39.988281 90.308594 29.933594 C 117.433594 17.367188 151.46875 11.085938 191.265625 11.085938 C 229.28125 11.085938 261.851562 17.367188 287.929688 29.933594 C 308.769531 39.882812 325.527344 53.917969 337.675781 71.511719 C 358.410156 101.464844 358.621094 131.730469 358.621094 132.042969 Z M 358.621094 132.042969 " fill-opacity="1" fill-rule="nonzero"/><g clip-path="url(#8e902920cd)"><path fill="#ba8afc" d="M 342.179688 364.960938 L 298.71875 364.960938 C 289.082031 364.960938 281.226562 357.105469 281.226562 347.46875 C 281.226562 338.988281 274.316406 332.074219 265.832031 332.074219 L 109.054688 332.074219 C 100.570312 332.074219 93.660156 338.988281 93.660156 347.46875 C 93.660156 357.105469 85.804688 364.960938 76.171875 364.960938 L 32.8125 364.960938 C 23.179688 364.960938 15.324219 357.105469 15.324219 347.46875 L 15.324219 131.941406 C 15.324219 131.625 15.53125 100.941406 37.421875 70.777344 C 50.199219 53.183594 67.898438 39.046875 89.785156 28.886719 C 117.015625 16.320312 151.15625 10.035156 191.160156 10.035156 C 229.597656 10.035156 262.273438 16.425781 288.246094 28.992188 C 309.292969 39.046875 326.15625 53.183594 338.410156 70.988281 C 359.355469 101.148438 359.5625 131.730469 359.5625 132.042969 L 359.5625 347.46875 C 359.667969 357.105469 351.8125 364.960938 342.179688 364.960938 Z M 109.054688 329.980469 L 266.042969 329.980469 C 275.675781 329.980469 283.53125 337.835938 283.53125 347.46875 C 283.53125 355.953125 290.445312 362.863281 298.925781 362.863281 L 342.386719 362.863281 C 350.871094 362.863281 357.785156 355.953125 357.785156 347.46875 L 357.785156 132.042969 C 357.785156 131.730469 357.46875 101.671875 337.046875 72.140625 C 325.003906 54.652344 308.351562 40.828125 287.71875 30.878906 C 261.644531 18.414062 229.28125 12.132812 191.265625 12.132812 C 151.574219 12.132812 117.746094 18.414062 90.726562 30.878906 C 69.046875 40.929688 51.664062 54.753906 39.097656 72.140625 C 17.730469 101.671875 17.417969 131.730469 17.417969 131.941406 L 17.417969 347.46875 C 17.417969 355.953125 24.328125 362.863281 32.8125 362.863281 L 76.273438 362.863281 C 84.757812 362.863281 91.671875 355.953125 91.671875 347.46875 C 91.566406 337.835938 99.417969 329.980469 109.054688 329.980469 Z M 109.054688 329.980469 " fill-opacity="1" fill-rule="nonzero"/></g><g clip-path="url(#7040c06ab1)"><path fill="#ffffff" d="M 107.878906 98.011719 C 104.464844 98.011719 101.6875 100.789062 101.6875 104.203125 L 101.6875 300.082031 C 101.6875 303.496094 104.464844 306.277344 107.878906 306.277344 L 267.117188 306.277344 C 270.53125 306.277344 273.308594 303.496094 273.308594 300.082031 L 273.308594 104.203125 C 273.308594 100.789062 270.53125 98.011719 267.117188 98.011719 L 246.664062 98.011719 L 246.664062 106.734375 C 246.664062 111.972656 242.402344 116.234375 237.164062 116.234375 L 135.570312 116.234375 C 130.332031 116.234375 126.070312 111.972656 126.070312 106.734375 L 126.070312 98.011719 Z M 267.117188 311.582031 L 107.878906 311.582031 C 101.539062 311.582031 96.378906 306.425781 96.378906 300.082031 L 96.378906 104.203125 C 96.378906 97.863281 101.539062 92.703125 107.878906 92.703125 L 131.378906 92.703125 L 131.378906 106.734375 C 131.378906 109.046875 133.257812 110.925781 135.570312 110.925781 L 237.164062 110.925781 C 239.476562 110.925781 241.355469 109.046875 241.355469 106.734375 L 241.355469 92.703125 L 267.117188 92.703125 C 273.457031 92.703125 278.617188 97.863281 278.617188 104.203125 L 278.617188 300.082031 C 278.617188 306.425781 273.457031 311.582031 267.117188 311.582031 " fill-opacity="1" fill-rule="nonzero"/></g><g clip-path="url(#1c51731538)"><path fill="#ffffff" d="M 135.570312 84.386719 C 133.257812 84.386719 131.378906 86.269531 131.378906 88.582031 L 131.378906 106.734375 C 131.378906 109.046875 133.257812 110.925781 135.570312 110.925781 L 237.164062 110.925781 C 239.476562 110.925781 241.355469 109.046875 241.355469 106.734375 L 241.355469 88.582031 C 241.355469 86.269531 239.476562 84.386719 237.164062 84.386719 L 214.273438 84.386719 C 210.03125 84.386719 206.164062 81.90625 204.175781 77.910156 C 201.402344 72.320312 194.917969 68.710938 187.65625 68.710938 C 180.398438 68.710938 173.914062 72.320312 171.136719 77.910156 C 169.152344 81.90625 165.285156 84.386719 161.042969 84.386719 Z M 237.164062 116.234375 L 135.570312 116.234375 C 130.332031 116.234375 126.070312 111.972656 126.070312 106.734375 L 126.070312 88.582031 C 126.070312 83.34375 130.332031 79.082031 135.570312 79.082031 L 161.042969 79.082031 C 163.253906 79.082031 165.300781 77.726562 166.382812 75.546875 C 170.046875 68.167969 178.398438 63.402344 187.65625 63.402344 C 196.917969 63.402344 205.269531 68.167969 208.933594 75.546875 C 210.015625 77.726562 212.0625 79.082031 214.273438 79.082031 L 237.164062 79.082031 C 242.402344 79.082031 246.664062 83.34375 246.664062 88.582031 L 246.664062 106.734375 C 246.664062 111.972656 242.402344 116.234375 237.164062 116.234375 " fill-opacity="1" fill-rule="nonzero"/></g><path fill="#ffffff" d="M 191.957031 92.5625 C 191.957031 95.023438 189.960938 97.019531 187.5 97.019531 C 185.035156 97.019531 183.039062 95.023438 183.039062 92.5625 C 183.039062 90.101562 185.035156 88.105469 187.5 88.105469 C 189.960938 88.105469 191.957031 90.101562 191.957031 92.5625 " fill-opacity="1" fill-rule="nonzero"/><path fill="#ffffff" d="M 243.761719 159.664062 L 197.261719 159.664062 C 194.820312 159.664062 192.839844 157.683594 192.839844 155.242188 C 192.839844 152.800781 194.820312 150.820312 197.261719 150.820312 L 243.761719 150.820312 C 246.203125 150.820312 248.183594 152.800781 248.183594 155.242188 C 248.183594 157.683594 246.203125 159.664062 243.761719 159.664062 " fill-opacity="1" fill-rule="nonzero"/><path fill="#ffffff" d="M 243.761719 207.496094 L 197.261719 207.496094 C 194.820312 207.496094 192.839844 205.515625 192.839844 203.074219 C 192.839844 200.628906 194.820312 198.648438 197.261719 198.648438 L 243.761719 198.648438 C 246.203125 198.648438 248.183594 200.628906 248.183594 203.074219 C 248.183594 205.515625 246.203125 207.496094 243.761719 207.496094 " fill-opacity="1" fill-rule="nonzero"/><path fill="#ffffff" d="M 140.058594 160.574219 C 140.941406 161.898438 141.894531 163.15625 142.890625 164.363281 C 143.886719 165.578125 145.007812 166.664062 146.1875 167.695312 L 146.703125 168.144531 L 146.921875 168.320312 C 148.640625 169.605469 151.070312 169.25 152.351562 167.535156 C 154.097656 165.199219 155.660156 162.699219 157.460938 160.414062 C 159.214844 158.089844 161.007812 155.796875 162.710938 153.425781 C 164.449219 151.082031 166.144531 148.703125 167.824219 146.308594 C 169.515625 143.925781 171.207031 141.542969 172.835938 139.101562 C 172.933594 138.949219 172.929688 138.746094 172.808594 138.601562 C 172.660156 138.421875 172.394531 138.394531 172.214844 138.542969 C 169.953125 140.414062 167.761719 142.34375 165.5625 144.269531 C 163.351562 146.183594 161.160156 148.113281 159.007812 150.082031 C 156.820312 152.023438 154.726562 154.039062 152.59375 156.027344 C 151.574219 157.015625 150.496094 157.949219 149.414062 158.878906 C 149.230469 158.71875 149.0625 158.542969 148.871094 158.386719 C 147.660156 157.386719 146.40625 156.4375 145.082031 155.550781 C 143.757812 154.667969 142.390625 153.828125 140.917969 153.089844 C 139.472656 152.332031 137.9375 151.660156 136.242188 151.144531 C 136.15625 151.121094 136.058594 151.117188 135.96875 151.144531 C 135.71875 151.222656 135.578125 151.484375 135.652344 151.734375 C 136.167969 153.429688 136.835938 154.964844 137.597656 156.414062 C 138.335938 157.882812 139.175781 159.25 140.058594 160.574219 " fill-opacity="1" fill-rule="nonzero"/><path fill="#ffffff" d="M 172.214844 186.375 C 169.953125 188.242188 167.761719 190.171875 165.5625 192.097656 C 163.351562 194.015625 161.160156 195.945312 159.007812 197.914062 C 156.824219 199.851562 154.726562 201.871094 152.59375 203.855469 C 151.574219 204.84375 150.496094 205.78125 149.414062 206.710938 C 149.230469 206.550781 149.0625 206.371094 148.871094 206.214844 C 147.660156 205.21875 146.40625 204.265625 145.082031 203.382812 C 143.757812 202.5 142.390625 201.660156 140.921875 200.921875 C 139.472656 200.164062 137.9375 199.488281 136.242188 198.976562 C 136.15625 198.949219 136.058594 198.949219 135.96875 198.976562 C 135.71875 199.050781 135.578125 199.316406 135.652344 199.566406 C 136.167969 201.261719 136.835938 202.796875 137.597656 204.242188 C 138.335938 205.714844 139.175781 207.082031 140.058594 208.40625 C 140.941406 209.730469 141.894531 210.984375 142.890625 212.195312 C 143.886719 213.410156 145.007812 214.496094 146.1875 215.523438 L 146.703125 215.972656 L 146.921875 216.152344 C 148.640625 217.433594 151.070312 217.082031 152.351562 215.367188 C 154.097656 213.03125 155.660156 210.53125 157.460938 208.246094 C 159.214844 205.921875 161.007812 203.628906 162.714844 201.257812 C 164.449219 198.914062 166.144531 196.535156 167.824219 194.140625 C 169.515625 191.753906 171.207031 189.375 172.835938 186.929688 C 172.933594 186.78125 172.929688 186.578125 172.808594 186.429688 C 172.660156 186.25 172.394531 186.226562 172.214844 186.375 " fill-opacity="1" fill-rule="nonzero"/><path fill="#ffffff" d="M 172.214844 234.203125 C 169.953125 236.074219 167.761719 238.003906 165.5625 239.929688 C 163.351562 241.84375 161.160156 243.777344 159.007812 245.746094 C 156.820312 247.683594 154.726562 249.703125 152.59375 251.6875 C 151.574219 252.675781 150.496094 253.609375 149.414062 254.542969 C 149.230469 254.378906 149.0625 254.203125 148.871094 254.046875 C 147.660156 253.050781 146.40625 252.097656 145.082031 251.214844 C 143.757812 250.328125 142.390625 249.488281 140.921875 248.753906 C 139.472656 247.992188 137.9375 247.320312 136.242188 246.808594 C 136.15625 246.78125 136.058594 246.777344 135.96875 246.808594 C 135.71875 246.882812 135.578125 247.148438 135.652344 247.398438 C 136.167969 249.089844 136.835938 250.625 137.597656 252.074219 C 138.335938 253.542969 139.175781 254.914062 140.058594 256.234375 C 140.941406 257.5625 141.894531 258.816406 142.890625 260.027344 C 143.886719 261.238281 145.007812 262.328125 146.1875 263.355469 L 146.703125 263.804688 L 146.921875 263.984375 C 148.640625 265.265625 151.070312 264.914062 152.351562 263.195312 C 154.097656 260.859375 155.660156 258.363281 157.460938 256.078125 C 159.214844 253.753906 161.007812 251.460938 162.714844 249.089844 C 164.449219 246.746094 166.144531 244.367188 167.824219 241.972656 C 169.515625 239.585938 171.207031 237.203125 172.835938 234.761719 C 172.933594 234.613281 172.929688 234.40625 172.808594 234.261719 C 172.660156 234.082031 172.394531 234.058594 172.214844 234.203125 " fill-opacity="1" fill-rule="nonzero"/><path fill="#ffffff" d="M 243.761719 255.328125 L 197.261719 255.328125 C 194.820312 255.328125 192.839844 253.347656 192.839844 250.902344 C 192.839844 248.460938 194.820312 246.480469 197.261719 246.480469 L 243.761719 246.480469 C 246.203125 246.480469 248.183594 248.460938 248.183594 250.902344 C 248.183594 253.347656 246.203125 255.328125 243.761719 255.328125 " fill-opacity="1" fill-rule="nonzero"/></svg>