<svg xmlns="http://www.w3.org/2000/svg" xmlns:xlink="http://www.w3.org/1999/xlink" width="500" zoomAndPan="magnify" viewBox="0 0 375 374.999991" height="500" preserveAspectRatio="xMidYMid meet" version="1.0"><defs><clipPath id="fddab7f784"><path d="M 9.792969 4.46875 L 365 4.46875 L 365 370.710938 L 9.792969 370.710938 Z M 9.792969 4.46875 " clip-rule="nonzero"/></clipPath><clipPath id="c8136a320a"><path d="M 93.519531 89.710938 L 281.316406 89.710938 L 281.316406 315.476562 L 93.519531 315.476562 Z M 93.519531 89.710938 " clip-rule="nonzero"/></clipPath><clipPath id="bc94d77157"><path d="M 124 59.492188 L 249 59.492188 L 249 114 L 124 114 Z M 124 59.492188 " clip-rule="nonzero"/></clipPath></defs><path fill="#5e17eb" d="M 363.992188 130.304688 L 363.992188 352.488281 C 363.992188 361.78125 356.429688 369.449219 347.03125 369.449219 L 302.207031 369.449219 C 292.917969 369.449219 285.25 361.886719 285.25 352.488281 C 285.25 343.199219 277.6875 335.53125 268.289062 335.53125 L 106.59375 335.53125 C 97.304688 335.53125 89.632812 343.09375 89.632812 352.488281 C 89.632812 361.78125 82.074219 369.449219 72.675781 369.449219 L 27.957031 369.449219 C 18.667969 369.449219 11 361.886719 11 352.488281 L 11 130.195312 C 11 129.871094 11.214844 98.65625 33.574219 67.765625 C 46.753906 49.726562 64.792969 35.359375 87.257812 24.992188 C 115.234375 12.027344 150.339844 5.546875 191.382812 5.546875 C 230.59375 5.546875 264.1875 12.027344 291.082031 24.992188 C 312.578125 35.25 329.859375 49.726562 342.386719 67.871094 C 363.777344 98.765625 363.992188 129.980469 363.992188 130.304688 Z M 363.992188 130.304688 L 363.992188 352.488281 C 363.992188 361.78125 356.429688 369.449219 347.03125 369.449219 L 302.207031 369.449219 C 292.917969 369.449219 285.25 361.886719 285.25 352.488281 C 285.25 343.199219 277.6875 335.53125 268.289062 335.53125 L 106.59375 335.53125 C 97.304688 335.53125 89.632812 343.09375 89.632812 352.488281 C 89.632812 361.78125 82.074219 369.449219 72.675781 369.449219 L 27.957031 369.449219 C 18.667969 369.449219 11 361.886719 11 352.488281 L 11 130.195312 C 11 129.871094 11.214844 98.65625 33.574219 67.765625 C 46.753906 49.726562 64.792969 35.359375 87.257812 24.992188 C 115.234375 12.027344 150.339844 5.546875 191.382812 5.546875 C 230.59375 5.546875 264.1875 12.027344 291.082031 24.992188 C 312.578125 35.25 329.859375 49.726562 342.386719 67.871094 C 363.777344 98.765625 363.992188 129.980469 363.992188 130.304688 Z M 363.992188 130.304688 " fill-opacity="1" fill-rule="nonzero"/><g clip-path="url(#fddab7f784)"><path fill="#5e17eb" d="M 347.035156 370.527344 L 302.207031 370.527344 C 292.269531 370.527344 284.167969 362.425781 284.167969 352.488281 C 284.167969 343.742188 277.039062 336.613281 268.289062 336.613281 L 106.59375 336.613281 C 97.84375 336.613281 90.714844 343.742188 90.714844 352.488281 C 90.714844 362.425781 82.613281 370.527344 72.675781 370.527344 L 27.957031 370.527344 C 18.019531 370.527344 9.921875 362.425781 9.921875 352.488281 L 9.921875 130.195312 C 9.921875 129.871094 10.136719 98.222656 32.710938 67.117188 C 45.890625 48.96875 64.144531 34.386719 86.71875 23.910156 C 114.800781 10.949219 150.015625 4.46875 191.277344 4.46875 C 230.917969 4.46875 264.617188 11.054688 291.40625 24.019531 C 313.117188 34.386719 330.507812 48.96875 343.144531 67.332031 C 364.746094 98.441406 364.964844 129.980469 364.964844 130.304688 L 364.964844 352.488281 C 365.070312 362.425781 356.96875 370.527344 347.035156 370.527344 Z M 106.59375 334.453125 L 268.507812 334.453125 C 278.445312 334.453125 286.546875 342.554688 286.546875 352.488281 C 286.546875 361.238281 293.675781 368.367188 302.421875 368.367188 L 347.25 368.367188 C 356 368.367188 363.128906 361.238281 363.128906 352.488281 L 363.128906 130.304688 C 363.128906 129.980469 362.804688 98.980469 341.742188 68.519531 C 329.320312 50.480469 312.144531 36.222656 290.867188 25.960938 C 263.96875 13.109375 230.59375 6.628906 191.382812 6.628906 C 150.445312 6.628906 115.558594 13.109375 87.691406 25.960938 C 65.332031 36.332031 47.402344 50.589844 34.4375 68.519531 C 12.40625 98.980469 12.082031 129.980469 12.082031 130.195312 L 12.082031 352.488281 C 12.082031 361.238281 19.210938 368.367188 27.957031 368.367188 L 72.785156 368.367188 C 81.535156 368.367188 88.664062 361.238281 88.664062 352.488281 C 88.554688 342.554688 96.65625 334.453125 106.59375 334.453125 Z M 106.59375 334.453125 " fill-opacity="1" fill-rule="nonzero"/></g><g clip-path="url(#c8136a320a)"><path fill="#ffffff" d="M 105.382812 95.203125 C 101.859375 95.203125 98.996094 98.070312 98.996094 101.589844 L 98.996094 303.617188 C 98.996094 307.136719 101.859375 310.003906 105.382812 310.003906 L 269.613281 310.003906 C 273.136719 310.003906 276.003906 307.136719 276.003906 303.617188 L 276.003906 101.589844 C 276.003906 98.070312 273.136719 95.203125 269.613281 95.203125 L 248.519531 95.203125 L 248.519531 104.199219 C 248.519531 109.601562 244.125 114 238.722656 114 L 133.941406 114 C 128.539062 114 124.140625 109.601562 124.140625 104.199219 L 124.140625 95.203125 Z M 269.613281 315.476562 L 105.382812 315.476562 C 98.839844 315.476562 93.519531 310.15625 93.519531 303.617188 L 93.519531 101.589844 C 93.519531 95.050781 98.839844 89.730469 105.382812 89.730469 L 129.617188 89.730469 L 129.617188 104.199219 C 129.617188 106.585938 131.554688 108.523438 133.941406 108.523438 L 238.722656 108.523438 C 241.105469 108.523438 243.046875 106.585938 243.046875 104.199219 L 243.046875 89.730469 L 269.613281 89.730469 C 276.15625 89.730469 281.476562 95.050781 281.476562 101.589844 L 281.476562 303.617188 C 281.476562 310.15625 276.15625 315.476562 269.613281 315.476562 " fill-opacity="1" fill-rule="nonzero"/></g><g clip-path="url(#bc94d77157)"><path fill="#ffffff" d="M 133.941406 81.152344 C 131.554688 81.152344 129.617188 83.09375 129.617188 85.476562 L 129.617188 104.199219 C 129.617188 106.585938 131.554688 108.523438 133.941406 108.523438 L 238.722656 108.523438 C 241.105469 108.523438 243.046875 106.585938 243.046875 104.199219 L 243.046875 85.476562 C 243.046875 83.09375 241.105469 81.152344 238.722656 81.152344 L 215.113281 81.152344 C 210.738281 81.152344 206.75 78.589844 204.699219 74.46875 C 201.839844 68.707031 195.152344 64.984375 187.664062 64.984375 C 180.175781 64.984375 173.488281 68.707031 170.625 74.46875 C 168.578125 78.589844 164.585938 81.152344 160.210938 81.152344 Z M 238.722656 113.996094 L 133.941406 113.996094 C 128.535156 113.996094 124.140625 109.605469 124.140625 104.199219 L 124.140625 85.476562 C 124.140625 80.074219 128.535156 75.679688 133.941406 75.679688 L 160.210938 75.679688 C 162.496094 75.679688 164.605469 74.28125 165.722656 72.035156 C 169.5 64.425781 178.113281 59.507812 187.664062 59.507812 C 197.210938 59.507812 205.824219 64.425781 209.605469 72.035156 C 210.71875 74.28125 212.832031 75.679688 215.113281 75.679688 L 238.722656 75.679688 C 244.125 75.679688 248.519531 80.074219 248.519531 85.476562 L 248.519531 104.199219 C 248.519531 109.601562 244.125 113.996094 238.722656 113.996094 " fill-opacity="1" fill-rule="nonzero"/></g><path fill="#ffffff" d="M 192.097656 89.582031 C 192.097656 92.121094 190.039062 94.183594 187.5 94.183594 C 184.957031 94.183594 182.898438 92.121094 182.898438 89.582031 C 182.898438 87.042969 184.957031 84.984375 187.5 84.984375 C 190.039062 84.984375 192.097656 87.042969 192.097656 89.582031 " fill-opacity="1" fill-rule="nonzero"/><path fill="#ffffff" d="M 245.527344 158.792969 L 197.570312 158.792969 C 195.050781 158.792969 193.007812 156.75 193.007812 154.230469 C 193.007812 151.710938 195.050781 149.667969 197.570312 149.667969 L 245.527344 149.667969 C 248.046875 149.667969 250.085938 151.710938 250.085938 154.230469 C 250.085938 156.75 248.046875 158.792969 245.527344 158.792969 " fill-opacity="1" fill-rule="nonzero"/><path fill="#ffffff" d="M 245.527344 208.125 L 197.570312 208.125 C 195.050781 208.125 193.007812 206.082031 193.007812 203.5625 C 193.007812 201.039062 195.050781 199 197.570312 199 L 245.527344 199 C 248.046875 199 250.089844 201.039062 250.089844 203.5625 C 250.089844 206.082031 248.046875 208.125 245.527344 208.125 " fill-opacity="1" fill-rule="nonzero"/><path fill="#ffffff" d="M 138.570312 159.730469 C 139.480469 161.097656 140.464844 162.390625 141.492188 163.636719 C 142.519531 164.890625 143.671875 166.011719 144.890625 167.074219 L 145.421875 167.535156 L 145.648438 167.71875 C 147.417969 169.042969 149.925781 168.679688 151.25 166.910156 C 153.046875 164.5 154.660156 161.921875 156.515625 159.566406 C 158.328125 157.167969 160.175781 154.804688 161.933594 152.355469 C 163.726562 149.941406 165.476562 147.488281 167.207031 145.015625 C 168.949219 142.558594 170.695312 140.101562 172.375 137.582031 C 172.476562 137.425781 172.472656 137.21875 172.347656 137.066406 C 172.195312 136.878906 171.921875 136.855469 171.738281 137.007812 C 169.402344 138.933594 167.140625 140.925781 164.871094 142.910156 C 162.59375 144.886719 160.332031 146.878906 158.113281 148.910156 C 155.859375 150.910156 153.699219 152.992188 151.496094 155.039062 C 150.445312 156.058594 149.335938 157.023438 148.21875 157.980469 C 148.027344 157.816406 147.855469 157.632812 147.660156 157.472656 C 146.410156 156.441406 145.117188 155.460938 143.75 154.550781 C 142.386719 153.636719 140.972656 152.773438 139.457031 152.011719 C 137.964844 151.226562 136.378906 150.535156 134.632812 150.003906 C 134.542969 149.976562 134.445312 149.976562 134.351562 150.003906 C 134.09375 150.082031 133.949219 150.355469 134.023438 150.613281 C 134.554688 152.359375 135.246094 153.945312 136.03125 155.4375 C 136.792969 156.953125 137.65625 158.363281 138.570312 159.730469 " fill-opacity="1" fill-rule="nonzero"/><path fill="#ffffff" d="M 171.738281 186.339844 C 169.402344 188.265625 167.140625 190.257812 164.871094 192.242188 C 162.59375 194.21875 160.332031 196.210938 158.113281 198.242188 C 155.859375 200.238281 153.699219 202.320312 151.496094 204.371094 C 150.445312 205.390625 149.335938 206.355469 148.21875 207.3125 C 148.027344 207.148438 147.855469 206.964844 147.660156 206.804688 C 146.410156 205.773438 145.117188 204.792969 143.75 203.882812 C 142.386719 202.96875 140.972656 202.101562 139.457031 201.34375 C 137.964844 200.558594 136.378906 199.867188 134.632812 199.335938 C 134.542969 199.308594 134.445312 199.308594 134.351562 199.335938 C 134.09375 199.414062 133.949219 199.6875 134.023438 199.945312 C 134.554688 201.691406 135.246094 203.277344 136.03125 204.769531 C 136.792969 206.285156 137.65625 207.695312 138.570312 209.0625 C 139.480469 210.429688 140.464844 211.722656 141.492188 212.96875 C 142.519531 214.222656 143.671875 215.34375 144.890625 216.402344 L 145.421875 216.867188 L 145.648438 217.050781 C 147.417969 218.375 149.925781 218.011719 151.25 216.238281 C 153.046875 213.832031 154.660156 211.253906 156.515625 208.898438 C 158.328125 206.5 160.175781 204.136719 161.933594 201.6875 C 163.726562 199.273438 165.476562 196.816406 167.207031 194.347656 C 168.949219 191.886719 170.695312 189.433594 172.375 186.914062 C 172.476562 186.757812 172.472656 186.546875 172.347656 186.398438 C 172.195312 186.210938 171.921875 186.183594 171.738281 186.339844 " fill-opacity="1" fill-rule="nonzero"/><path fill="#ffffff" d="M 171.738281 235.671875 C 169.402344 237.597656 167.140625 239.589844 164.871094 241.574219 C 162.59375 243.550781 160.332031 245.542969 158.113281 247.570312 C 155.859375 249.570312 153.699219 251.652344 151.496094 253.699219 C 150.445312 254.71875 149.335938 255.6875 148.21875 256.644531 C 148.027344 256.480469 147.855469 256.296875 147.660156 256.136719 C 146.410156 255.105469 145.117188 254.125 143.75 253.210938 C 142.386719 252.300781 140.972656 251.433594 139.457031 250.675781 C 137.964844 249.890625 136.378906 249.199219 134.632812 248.667969 C 134.542969 248.640625 134.445312 248.640625 134.351562 248.667969 C 134.09375 248.746094 133.949219 249.019531 134.023438 249.277344 C 134.554688 251.023438 135.246094 252.605469 136.03125 254.101562 C 136.792969 255.617188 137.65625 257.027344 138.570312 258.394531 C 139.480469 259.761719 140.464844 261.054688 141.492188 262.300781 C 142.519531 263.554688 143.671875 264.675781 144.890625 265.734375 L 145.421875 266.199219 L 145.648438 266.382812 C 147.417969 267.707031 149.925781 267.339844 151.25 265.570312 C 153.046875 263.164062 154.660156 260.585938 156.515625 258.230469 C 158.328125 255.832031 160.175781 253.464844 161.933594 251.019531 C 163.726562 248.605469 165.476562 246.148438 167.207031 243.679688 C 168.949219 241.21875 170.695312 238.765625 172.375 236.246094 C 172.476562 236.089844 172.472656 235.878906 172.347656 235.730469 C 172.195312 235.542969 171.921875 235.519531 171.738281 235.671875 " fill-opacity="1" fill-rule="nonzero"/><path fill="#ffffff" d="M 245.527344 257.457031 L 197.570312 257.457031 C 195.050781 257.457031 193.007812 255.414062 193.007812 252.894531 C 193.007812 250.375 195.050781 248.332031 197.570312 248.332031 L 245.527344 248.332031 C 248.046875 248.332031 250.089844 250.375 250.089844 252.894531 C 250.089844 255.414062 248.046875 257.457031 245.527344 257.457031 " fill-opacity="1" fill-rule="nonzero"/></svg>