<svg xmlns="http://www.w3.org/2000/svg" xmlns:xlink="http://www.w3.org/1999/xlink" width="500" zoomAndPan="magnify" viewBox="0 0 375 374.999991" height="500" preserveAspectRatio="xMidYMid meet" version="1.0"><defs><clipPath id="09cc08bf76"><path d="M 7.359375 296 L 95 296 L 95 339 L 7.359375 339 Z M 7.359375 296 " clip-rule="nonzero"/></clipPath><clipPath id="cb541a1928"><path d="M 7.359375 7.359375 L 339 7.359375 L 339 283 L 7.359375 283 Z M 7.359375 7.359375 " clip-rule="nonzero"/></clipPath><clipPath id="aa1319441b"><path d="M 108 65 L 290.550781 65 L 290.550781 237 L 108 237 Z M 108 65 " clip-rule="nonzero"/></clipPath><clipPath id="6abc98af39"><path d="M 64.554688 79 L 262 79 L 262 276.632812 L 64.554688 276.632812 Z M 64.554688 79 " clip-rule="nonzero"/></clipPath></defs><path fill="#5e17eb" d="M 17.40625 329.222656 L 46.859375 358.675781 L 46.230469 358.058594 C 49.4375 361.265625 53.859375 363.246094 58.75 363.246094 L 345.539062 363.246094 C 350.429688 363.246094 354.851562 361.265625 358.058594 358.058594 C 361.265625 354.851562 363.246094 350.429688 363.246094 345.539062 L 363.246094 58.75 C 363.246094 53.859375 361.265625 49.4375 358.058594 46.230469 L 358.441406 46.476562 L 329.296875 17.40625 " fill-opacity="1" fill-rule="nonzero"/><path fill="#000000" d="M 345.539062 367.636719 L 58.75 367.636719 C 53.300781 367.636719 48.160156 365.675781 44.121094 362.101562 C 44.015625 362.015625 43.914062 361.925781 43.8125 361.839844 L 43.652344 361.675781 C 43.476562 361.515625 43.300781 361.339844 43.125 361.164062 C 43.035156 361.078125 42.949219 360.988281 42.875 360.886719 L 14.300781 332.3125 C 12.589844 330.601562 12.589844 327.816406 14.300781 326.101562 C 16.015625 324.390625 18.796875 324.390625 20.511719 326.101562 L 49.800781 355.378906 C 52.261719 357.621094 55.410156 358.835938 58.75 358.835938 L 345.539062 358.835938 C 349.097656 358.835938 352.4375 357.445312 354.953125 354.941406 C 357.472656 352.4375 358.851562 349.082031 358.851562 345.523438 L 358.851562 58.75 C 358.851562 55.191406 357.460938 51.851562 354.953125 49.332031 C 354.75 49.128906 354.558594 48.894531 354.398438 48.660156 L 326.191406 20.511719 C 324.476562 18.796875 324.464844 16.015625 326.191406 14.300781 C 327.90625 12.589844 330.6875 12.574219 332.402344 14.300781 L 361.546875 43.371094 C 361.808594 43.636719 362.042969 43.945312 362.234375 44.25 C 365.734375 48.265625 367.652344 53.359375 367.652344 58.75 L 367.652344 345.539062 C 367.652344 351.441406 365.351562 356.992188 361.179688 361.164062 C 357.003906 365.339844 351.453125 367.636719 345.550781 367.636719 Z M 345.539062 367.636719 " fill-opacity="1" fill-rule="nonzero"/><path fill="#ffffff" d="M 29.460938 11.753906 L 316.246094 11.753906 C 316.828125 11.753906 317.40625 11.78125 317.984375 11.839844 C 318.558594 11.894531 319.132812 11.980469 319.703125 12.09375 C 320.269531 12.207031 320.832031 12.347656 321.386719 12.515625 C 321.941406 12.683594 322.488281 12.878906 323.023438 13.101562 C 323.558594 13.324219 324.082031 13.570312 324.59375 13.84375 C 325.105469 14.117188 325.601562 14.414062 326.085938 14.738281 C 326.566406 15.058594 327.03125 15.40625 327.480469 15.773438 C 327.929688 16.140625 328.355469 16.527344 328.765625 16.9375 C 329.175781 17.347656 329.566406 17.777344 329.933594 18.226562 C 330.300781 18.675781 330.648438 19.140625 330.96875 19.621094 C 331.292969 20.105469 331.589844 20.601562 331.863281 21.113281 C 332.136719 21.625 332.382812 22.148438 332.605469 22.683594 C 332.828125 23.21875 333.023438 23.765625 333.191406 24.320312 C 333.359375 24.875 333.5 25.4375 333.613281 26.003906 C 333.726562 26.574219 333.8125 27.148438 333.867188 27.722656 C 333.925781 28.300781 333.953125 28.878906 333.953125 29.460938 L 333.953125 316.246094 C 333.953125 316.828125 333.925781 317.40625 333.867188 317.984375 C 333.8125 318.558594 333.726562 319.132812 333.613281 319.703125 C 333.5 320.269531 333.359375 320.832031 333.191406 321.386719 C 333.023438 321.941406 332.828125 322.488281 332.605469 323.023438 C 332.382812 323.558594 332.136719 324.082031 331.863281 324.59375 C 331.589844 325.105469 331.292969 325.601562 330.96875 326.085938 C 330.648438 326.566406 330.300781 327.03125 329.933594 327.480469 C 329.566406 327.929688 329.175781 328.355469 328.765625 328.765625 C 328.355469 329.175781 327.929688 329.566406 327.480469 329.933594 C 327.03125 330.300781 326.566406 330.648438 326.085938 330.96875 C 325.601562 331.292969 325.105469 331.589844 324.59375 331.863281 C 324.082031 332.136719 323.558594 332.382812 323.023438 332.605469 C 322.488281 332.828125 321.941406 333.023438 321.386719 333.191406 C 320.832031 333.359375 320.269531 333.5 319.703125 333.613281 C 319.132812 333.726562 318.558594 333.8125 317.984375 333.867188 C 317.40625 333.925781 316.828125 333.953125 316.246094 333.953125 L 29.460938 333.953125 C 28.878906 333.953125 28.300781 333.925781 27.722656 333.867188 C 27.148438 333.8125 26.574219 333.726562 26.003906 333.613281 C 25.4375 333.5 24.875 333.359375 24.320312 333.191406 C 23.765625 333.023438 23.21875 332.828125 22.683594 332.605469 C 22.148438 332.382812 21.625 332.136719 21.113281 331.863281 C 20.601562 331.589844 20.105469 331.292969 19.621094 330.96875 C 19.140625 330.648438 18.675781 330.300781 18.226562 329.933594 C 17.777344 329.566406 17.347656 329.175781 16.9375 328.765625 C 16.527344 328.355469 16.140625 327.929688 15.773438 327.480469 C 15.40625 327.03125 15.058594 326.566406 14.738281 326.085938 C 14.414062 325.601562 14.117188 325.105469 13.84375 324.59375 C 13.570312 324.082031 13.324219 323.558594 13.101562 323.023438 C 12.878906 322.488281 12.683594 321.941406 12.515625 321.386719 C 12.347656 320.832031 12.207031 320.269531 12.09375 319.703125 C 11.980469 319.132812 11.894531 318.558594 11.839844 317.984375 C 11.78125 317.40625 11.753906 316.828125 11.753906 316.246094 L 11.753906 29.460938 C 11.753906 28.878906 11.78125 28.300781 11.839844 27.722656 C 11.894531 27.148438 11.980469 26.574219 12.09375 26.003906 C 12.207031 25.4375 12.347656 24.875 12.515625 24.320312 C 12.683594 23.765625 12.878906 23.21875 13.101562 22.683594 C 13.324219 22.148438 13.570312 21.625 13.84375 21.113281 C 14.117188 20.601562 14.414062 20.105469 14.738281 19.621094 C 15.058594 19.140625 15.40625 18.675781 15.773438 18.226562 C 16.140625 17.777344 16.527344 17.347656 16.9375 16.9375 C 17.347656 16.527344 17.777344 16.140625 18.226562 15.773438 C 18.675781 15.40625 19.140625 15.058594 19.621094 14.738281 C 20.105469 14.414062 20.601562 14.117188 21.113281 13.84375 C 21.625 13.570312 22.148438 13.324219 22.683594 13.101562 C 23.21875 12.878906 23.765625 12.683594 24.320312 12.515625 C 24.875 12.347656 25.4375 12.207031 26.003906 12.09375 C 26.574219 11.980469 27.148438 11.894531 27.722656 11.839844 C 28.300781 11.78125 28.878906 11.753906 29.460938 11.753906 Z M 29.460938 11.753906 " fill-opacity="1" fill-rule="nonzero"/><g clip-path="url(#09cc08bf76)"><path fill="#000000" d="M 90.472656 338.347656 L 29.460938 338.347656 C 17.273438 338.347656 7.359375 328.433594 7.359375 316.246094 L 7.359375 300.445312 C 7.359375 298.011719 9.320312 296.050781 11.753906 296.050781 C 14.183594 296.050781 16.148438 298.011719 16.148438 300.445312 L 16.148438 316.246094 C 16.148438 323.585938 22.121094 329.558594 29.460938 329.558594 L 90.472656 329.558594 C 92.902344 329.558594 94.867188 331.523438 94.867188 333.953125 C 94.867188 336.382812 92.902344 338.347656 90.472656 338.347656 Z M 90.472656 338.347656 " fill-opacity="1" fill-rule="nonzero"/></g><path fill="#000000" d="M 316.246094 338.347656 L 117.230469 338.347656 C 114.796875 338.347656 112.835938 336.382812 112.835938 333.953125 C 112.835938 331.523438 114.796875 329.558594 117.230469 329.558594 L 316.246094 329.558594 C 323.585938 329.558594 329.558594 323.585938 329.558594 316.246094 L 329.558594 132.386719 C 329.558594 129.957031 331.523438 127.996094 333.953125 127.996094 C 336.382812 127.996094 338.347656 129.957031 338.347656 132.386719 L 338.347656 316.246094 C 338.347656 328.433594 328.433594 338.347656 316.246094 338.347656 Z M 316.246094 338.347656 " fill-opacity="1" fill-rule="nonzero"/><g clip-path="url(#cb541a1928)"><path fill="#000000" d="M 11.753906 282.195312 C 9.320312 282.195312 7.359375 280.234375 7.359375 277.804688 L 7.359375 29.460938 C 7.359375 17.273438 17.273438 7.359375 29.460938 7.359375 L 316.246094 7.359375 C 328.433594 7.359375 338.347656 17.273438 338.347656 29.460938 L 338.347656 97.269531 C 338.347656 99.699219 336.382812 101.660156 333.953125 101.660156 C 331.523438 101.660156 329.558594 99.699219 329.558594 97.269531 L 329.558594 29.460938 C 329.558594 22.121094 323.585938 16.148438 316.246094 16.148438 L 29.460938 16.148438 C 22.121094 16.148438 16.148438 22.121094 16.148438 29.460938 L 16.148438 277.804688 C 16.148438 280.234375 14.183594 282.195312 11.753906 282.195312 Z M 11.753906 282.195312 " fill-opacity="1" fill-rule="nonzero"/></g><g clip-path="url(#aa1319441b)"><path fill="#5e17eb" d="M 108 164.296875 C 108.242188 161.5 109.410156 159.023438 111.132812 156.765625 C 117.179688 148.8125 130.746094 145.167969 140.234375 151.035156 C 145.824219 154.492188 150.304688 158.9375 154.035156 164.199219 C 157.132812 168.570312 159.933594 173.15625 162.945312 177.773438 C 165.050781 174.785156 167.175781 171.71875 169.351562 168.6875 C 188.042969 142.660156 208.566406 118.226562 232.371094 96.6875 C 246.972656 83.476562 263.730469 73.660156 281.757812 65.902344 C 284.875 64.558594 287.472656 65.082031 290.144531 67.78125 C 288.921875 68.925781 287.703125 70.054688 286.496094 71.195312 C 270.75 86.0625 255.347656 101.273438 241.363281 117.816406 C 233.359375 127.277344 225.9375 137.230469 218.304688 147.003906 C 202.929688 166.679688 191.425781 188.816406 178.359375 209.960938 C 173.316406 218.125 168.320312 226.316406 163.269531 234.476562 C 161.261719 237.71875 158.621094 237.675781 156.605469 234.359375 C 150.074219 223.605469 144.917969 212.175781 140.050781 200.597656 C 135.984375 190.929688 131.417969 181.496094 125.617188 172.710938 C 122.746094 168.367188 119.367188 164.792969 113.808594 164.320312 C 111.933594 164.164062 110.027344 164.296875 108 164.296875 Z M 108 164.296875 " fill-opacity="1" fill-rule="nonzero"/></g><g clip-path="url(#6abc98af39)"><path fill="#5e17eb" d="M 249.382812 130.632812 L 234.066406 145.945312 C 238.492188 155.714844 240.945312 166.554688 240.945312 177.972656 C 240.945312 220.976562 206.09375 255.828125 163.089844 255.828125 C 120.085938 255.828125 85.234375 220.976562 85.234375 177.972656 C 85.234375 134.972656 120.085938 100.117188 163.089844 100.117188 C 173.84375 100.117188 184.074219 102.300781 193.382812 106.234375 L 208.8125 90.808594 C 195.152344 83.625 179.589844 79.5625 163.089844 79.5625 C 108.742188 79.5625 64.679688 123.625 64.679688 177.972656 C 64.679688 232.324219 108.742188 276.378906 163.089844 276.378906 C 217.441406 276.378906 261.5 232.320312 261.5 177.96875 C 261.5 160.8125 257.105469 144.675781 249.382812 130.632812 Z M 249.382812 130.632812 " fill-opacity="1" fill-rule="nonzero"/></g></svg>